<svg width="1031" height="445" viewBox="0 0 1031 445" fill="none" xmlns="http://www.w3.org/2000/svg">
<path d="M321.084 328L542.87 200L321.084 72L99.4102 200L321.084 328Z" stroke="black" stroke-miterlimit="1" stroke-linecap="square" stroke-linejoin="round"/>
<path d="M764.195 72.0005L542.41 200L764.195 328L985.869 200L764.195 72.0005Z" stroke="black" stroke-miterlimit="1" stroke-linecap="square" stroke-linejoin="round"/>
<path d="M321.41 0V163" stroke="black" stroke-dasharray="10 10"/>
<path d="M764.41 0V163" stroke="black" stroke-dasharray="10 10"/>
<path d="M321.41 241V404" stroke="black" stroke-dasharray="10 10"/>
<path d="M764.41 241V404" stroke="black" stroke-dasharray="10 10"/>
<path d="M99.4102 246L99.4102 401" stroke="black"/>
<path d="M542.41 246L542.41 401" stroke="black"/>
<path d="M985.41 246L985.41 401" stroke="black"/>
<path d="M222.904 184H226.378C230.14 184 232.786 181.678 232.786 177.7C232.786 173.722 230.14 171.4 226.378 171.4H222.904V184ZM224.416 182.65V172.75H226.324C229.222 172.75 231.256 174.352 231.256 177.7C231.256 181.048 229.222 182.65 226.324 182.65H224.416ZM234.884 173.506H236.594V171.76H234.884V173.506ZM235.028 184H236.468V175.072H235.028V184ZM242.121 184.252C244.299 184.252 245.469 182.884 245.469 181.408C245.469 179.878 244.353 179.122 242.499 178.762C241.005 178.474 240.123 178.024 240.123 177.178C240.123 176.386 240.933 175.972 241.905 175.972C242.949 175.972 243.831 176.512 244.263 177.646L245.379 176.998C244.767 175.63 243.723 174.82 241.887 174.82C240.213 174.82 238.791 175.72 238.791 177.214C238.791 178.762 240.123 179.554 241.833 179.86C243.363 180.148 244.065 180.58 244.065 181.48C244.065 182.398 243.291 183.01 242.121 183.01C240.789 183.01 239.907 182.182 239.493 180.904L238.287 181.66C238.845 183.046 240.105 184.252 242.121 184.252ZM251.364 184.252C253.182 184.252 254.46 183.352 255.234 181.984L254.136 181.282C253.524 182.308 252.75 182.92 251.382 182.92C249.6 182.92 248.268 181.588 248.268 179.536C248.268 177.448 249.654 176.152 251.382 176.152C252.48 176.152 253.452 176.656 254.064 177.79L255.234 177.07C254.55 175.648 253.254 174.82 251.364 174.82C248.88 174.82 246.792 176.764 246.792 179.536C246.792 182.29 248.736 184.252 251.364 184.252ZM261.122 184.252C263.57 184.252 265.802 182.578 265.802 179.536C265.802 176.494 263.57 174.82 261.122 174.82C258.692 174.82 256.46 176.494 256.46 179.536C256.46 182.578 258.692 184.252 261.122 184.252ZM261.122 182.938C259.34 182.938 257.918 181.552 257.918 179.536C257.918 177.52 259.34 176.134 261.122 176.134C262.922 176.134 264.344 177.52 264.344 179.536C264.344 181.552 262.922 182.938 261.122 182.938ZM269.89 184H271.33L274.912 175.072H273.364L270.61 182.272L267.856 175.072H266.308L269.89 184ZM279.908 184.252C281.906 184.252 283.184 183.316 284.012 181.642L282.932 181.012C282.374 182.182 281.492 183.01 279.962 183.01C278.162 183.01 276.992 181.588 276.902 179.77H284.264V179.284C284.264 176.674 282.608 174.82 279.98 174.82C277.478 174.82 275.48 176.764 275.48 179.536C275.48 182.308 277.46 184.252 279.908 184.252ZM276.902 178.6C277.19 177.124 278.414 175.99 279.962 175.99C281.42 175.99 282.716 176.89 282.806 178.6H276.902ZM286.321 184H287.761V179.284C287.761 177.556 288.787 176.134 290.137 176.134C290.407 176.134 290.641 176.17 290.821 176.224L291.055 174.91C290.821 174.838 290.605 174.82 290.317 174.82C289.129 174.82 288.193 175.63 287.761 176.674V175.072H286.321V184ZM294.039 187.78C295.173 187.78 295.875 187.24 296.379 185.98L300.843 175.072H299.241L296.469 182.056L293.679 175.072H292.041L295.695 184.018L295.101 185.53C294.849 186.16 294.507 186.448 294.003 186.448C293.715 186.448 293.517 186.376 293.301 186.268L293.049 187.618C293.337 187.726 293.679 187.78 294.039 187.78Z" fill="black"/>
<path d="M58.2931 426.4H63.7831C65.1871 426.4 66.2971 426.76 67.1131 427.48C67.9411 428.188 68.3551 429.172 68.3551 430.432C68.3551 431.692 67.9411 432.676 67.1131 433.384C66.2971 434.092 65.1871 434.446 63.7831 434.446H60.2371V439H58.2931V426.4ZM63.7291 432.718C64.6171 432.718 65.2831 432.52 65.7271 432.124C66.1831 431.716 66.4111 431.152 66.4111 430.432C66.4111 429.7 66.1831 429.136 65.7271 428.74C65.2831 428.332 64.6171 428.128 63.7291 428.128H60.2371V432.718H63.7291ZM70.3693 426.4H75.5533C76.4293 426.4 77.1853 426.55 77.8213 426.85C78.4693 427.138 78.9613 427.552 79.2973 428.092C79.6453 428.632 79.8193 429.25 79.8193 429.946C79.8193 430.87 79.5613 431.638 79.0453 432.25C78.5293 432.85 77.8033 433.282 76.8673 433.546L79.9633 439H77.7673L74.7613 433.726H72.3133V439H70.3693V426.4ZM75.4633 432.016C76.2553 432.016 76.8553 431.854 77.2633 431.53C77.6713 431.194 77.8753 430.702 77.8753 430.054C77.8753 429.418 77.6713 428.938 77.2633 428.614C76.8553 428.278 76.2553 428.11 75.4633 428.11H72.3133V432.016H75.4633ZM87.5375 439.252C86.3495 439.252 85.2755 438.976 84.3155 438.424C83.3675 437.86 82.6175 437.08 82.0655 436.084C81.5135 435.088 81.2375 433.96 81.2375 432.7C81.2375 431.44 81.5135 430.312 82.0655 429.316C82.6175 428.32 83.3675 427.546 84.3155 426.994C85.2755 426.43 86.3495 426.148 87.5375 426.148C88.7255 426.148 89.7935 426.43 90.7415 426.994C91.7015 427.546 92.4575 428.32 93.0095 429.316C93.5615 430.312 93.8375 431.44 93.8375 432.7C93.8375 433.96 93.5615 435.088 93.0095 436.084C92.4575 437.08 91.7015 437.86 90.7415 438.424C89.7935 438.976 88.7255 439.252 87.5375 439.252ZM87.5375 437.47C88.3655 437.47 89.1035 437.278 89.7515 436.894C90.4115 436.498 90.9275 435.94 91.2995 435.22C91.6715 434.5 91.8575 433.66 91.8575 432.7C91.8575 431.74 91.6715 430.9 91.2995 430.18C90.9275 429.46 90.4115 428.908 89.7515 428.524C89.1035 428.128 88.3655 427.93 87.5375 427.93C86.7095 427.93 85.9655 428.128 85.3055 428.524C84.6575 428.908 84.1475 429.46 83.7755 430.18C83.4035 430.9 83.2175 431.74 83.2175 432.7C83.2175 433.66 83.4035 434.5 83.7755 435.22C84.1475 435.94 84.6575 436.498 85.3055 436.894C85.9655 437.278 86.7095 437.47 87.5375 437.47ZM95.9103 426.4H100.788C102.036 426.4 103.014 426.676 103.722 427.228C104.43 427.78 104.784 428.518 104.784 429.442C104.784 430.102 104.598 430.672 104.226 431.152C103.866 431.62 103.416 431.968 102.876 432.196C104.484 432.784 105.288 433.816 105.288 435.292C105.288 436.036 105.09 436.69 104.694 437.254C104.298 437.818 103.764 438.25 103.092 438.55C102.42 438.85 101.682 439 100.878 439H95.9103V426.4ZM100.662 431.476C102.15 431.476 102.894 430.912 102.894 429.784C102.894 428.668 102.15 428.11 100.662 428.11H97.8543V431.476H100.662ZM100.698 437.272C101.538 437.272 102.186 437.098 102.642 436.75C103.11 436.402 103.344 435.892 103.344 435.22C103.344 434.548 103.11 434.044 102.642 433.708C102.186 433.36 101.538 433.186 100.698 433.186H97.8543V437.272H100.698ZM107.336 426.4H109.28V437.218H115.652V439H107.336V426.4ZM117.32 426.4H125.582V428.128H119.264V431.62H125.078V433.348H119.264V437.272H125.636V439H117.32V426.4ZM127.832 426.4H129.902L134.168 437.002L138.452 426.4H140.522V439H138.632V430.288C138.452 430.996 138.248 431.62 138.02 432.16L135.14 439H133.214L130.334 432.16C130.154 431.74 129.944 431.116 129.704 430.288V439H127.832V426.4Z" fill="black"/>
<path d="M55.9042 137.976H57.3802V128.274C57.5062 128.742 57.9202 129.858 58.0102 130.074L61.3042 137.976H62.8702L66.1642 130.056C66.2542 129.858 66.6682 128.742 66.8122 128.274V137.976H68.2702V125.376H66.6142L62.0962 136.554L57.5602 125.376H55.9042V137.976ZM71.8439 141.756C72.9779 141.756 73.6799 141.216 74.1839 139.956L78.6479 129.048H77.0459L74.2739 136.032L71.4839 129.048H69.8459L73.4999 137.994L72.9059 139.506C72.6539 140.136 72.3119 140.424 71.8079 140.424C71.5199 140.424 71.3219 140.352 71.1059 140.244L70.8539 141.594C71.1419 141.702 71.4839 141.756 71.8439 141.756ZM88.3745 138.228C90.5525 138.228 91.7225 136.86 91.7225 135.384C91.7225 133.854 90.6065 133.098 88.7525 132.738C87.2585 132.45 86.3765 132 86.3765 131.154C86.3765 130.362 87.1865 129.948 88.1585 129.948C89.2025 129.948 90.0845 130.488 90.5165 131.622L91.6325 130.974C91.0205 129.606 89.9765 128.796 88.1405 128.796C86.4665 128.796 85.0445 129.696 85.0445 131.19C85.0445 132.738 86.3765 133.53 88.0865 133.836C89.6165 134.124 90.3185 134.556 90.3185 135.456C90.3185 136.374 89.5445 136.986 88.3745 136.986C87.0425 136.986 86.1605 136.158 85.7465 134.88L84.5405 135.636C85.0985 137.022 86.3585 138.228 88.3745 138.228ZM97.4742 138.228C99.4722 138.228 100.75 137.292 101.578 135.618L100.498 134.988C99.9402 136.158 99.0582 136.986 97.5282 136.986C95.7282 136.986 94.5582 135.564 94.4682 133.746H101.83V133.26C101.83 130.65 100.174 128.796 97.5462 128.796C95.0442 128.796 93.0462 130.74 93.0462 133.512C93.0462 136.284 95.0262 138.228 97.4742 138.228ZM94.4682 132.576C94.7562 131.1 95.9802 129.966 97.5282 129.966C98.9862 129.966 100.282 130.866 100.372 132.576H94.4682ZM103.888 137.976H105.328V133.26C105.328 131.532 106.354 130.11 107.704 130.11C107.974 130.11 108.208 130.146 108.388 130.2L108.622 128.886C108.388 128.814 108.172 128.796 107.884 128.796C106.696 128.796 105.76 129.606 105.328 130.65V129.048H103.888V137.976ZM113.138 137.976H114.578L118.16 129.048H116.612L113.858 136.248L111.104 129.048H109.556L113.138 137.976ZM119.459 127.482H121.169V125.736H119.459V127.482ZM119.603 137.976H121.043V129.048H119.603V137.976ZM127.536 138.228C129.354 138.228 130.632 137.328 131.406 135.96L130.308 135.258C129.696 136.284 128.922 136.896 127.554 136.896C125.772 136.896 124.44 135.564 124.44 133.512C124.44 131.424 125.826 130.128 127.554 130.128C128.652 130.128 129.624 130.632 130.236 131.766L131.406 131.046C130.722 129.624 129.426 128.796 127.536 128.796C125.052 128.796 122.964 130.74 122.964 133.512C122.964 136.266 124.908 138.228 127.536 138.228ZM137.06 138.228C139.058 138.228 140.336 137.292 141.164 135.618L140.084 134.988C139.526 136.158 138.644 136.986 137.114 136.986C135.314 136.986 134.144 135.564 134.054 133.746H141.416V133.26C141.416 130.65 139.76 128.796 137.132 128.796C134.63 128.796 132.632 130.74 132.632 133.512C132.632 136.284 134.612 138.228 137.06 138.228ZM134.054 132.576C134.342 131.1 135.566 129.966 137.114 129.966C138.572 129.966 139.868 130.866 139.958 132.576H134.054ZM146.4 138.228C148.578 138.228 149.748 136.86 149.748 135.384C149.748 133.854 148.632 133.098 146.778 132.738C145.284 132.45 144.402 132 144.402 131.154C144.402 130.362 145.212 129.948 146.184 129.948C147.228 129.948 148.11 130.488 148.542 131.622L149.658 130.974C149.046 129.606 148.002 128.796 146.166 128.796C144.492 128.796 143.07 129.696 143.07 131.19C143.07 132.738 144.402 133.53 146.112 133.836C147.642 134.124 148.344 134.556 148.344 135.456C148.344 136.374 147.57 136.986 146.4 136.986C145.068 136.986 144.186 136.158 143.772 134.88L142.566 135.636C143.124 137.022 144.384 138.228 146.4 138.228Z" fill="#2400FF"/>
<path d="M449.974 426.4H455.464C456.868 426.4 457.978 426.76 458.794 427.48C459.622 428.188 460.036 429.172 460.036 430.432C460.036 431.692 459.622 432.676 458.794 433.384C457.978 434.092 456.868 434.446 455.464 434.446H451.918V439H449.974V426.4ZM455.41 432.718C456.298 432.718 456.964 432.52 457.408 432.124C457.864 431.716 458.092 431.152 458.092 430.432C458.092 429.7 457.864 429.136 457.408 428.74C456.964 428.332 456.298 428.128 455.41 428.128H451.918V432.718H455.41ZM462.05 426.4H467.234C468.11 426.4 468.866 426.55 469.502 426.85C470.15 427.138 470.642 427.552 470.978 428.092C471.326 428.632 471.5 429.25 471.5 429.946C471.5 430.87 471.242 431.638 470.726 432.25C470.21 432.85 469.484 433.282 468.548 433.546L471.644 439H469.448L466.442 433.726H463.994V439H462.05V426.4ZM467.144 432.016C467.936 432.016 468.536 431.854 468.944 431.53C469.352 431.194 469.556 430.702 469.556 430.054C469.556 429.418 469.352 428.938 468.944 428.614C468.536 428.278 467.936 428.11 467.144 428.11H463.994V432.016H467.144ZM479.218 439.252C478.03 439.252 476.956 438.976 475.996 438.424C475.048 437.86 474.298 437.08 473.746 436.084C473.194 435.088 472.918 433.96 472.918 432.7C472.918 431.44 473.194 430.312 473.746 429.316C474.298 428.32 475.048 427.546 475.996 426.994C476.956 426.43 478.03 426.148 479.218 426.148C480.406 426.148 481.474 426.43 482.422 426.994C483.382 427.546 484.138 428.32 484.69 429.316C485.242 430.312 485.518 431.44 485.518 432.7C485.518 433.96 485.242 435.088 484.69 436.084C484.138 437.08 483.382 437.86 482.422 438.424C481.474 438.976 480.406 439.252 479.218 439.252ZM479.218 437.47C480.046 437.47 480.784 437.278 481.432 436.894C482.092 436.498 482.608 435.94 482.98 435.22C483.352 434.5 483.538 433.66 483.538 432.7C483.538 431.74 483.352 430.9 482.98 430.18C482.608 429.46 482.092 428.908 481.432 428.524C480.784 428.128 480.046 427.93 479.218 427.93C478.39 427.93 477.646 428.128 476.986 428.524C476.338 428.908 475.828 429.46 475.456 430.18C475.084 430.9 474.898 431.74 474.898 432.7C474.898 433.66 475.084 434.5 475.456 435.22C475.828 435.94 476.338 436.498 476.986 436.894C477.646 437.278 478.39 437.47 479.218 437.47ZM487.591 426.4H492.469C493.717 426.4 494.695 426.676 495.403 427.228C496.111 427.78 496.465 428.518 496.465 429.442C496.465 430.102 496.279 430.672 495.907 431.152C495.547 431.62 495.097 431.968 494.557 432.196C496.165 432.784 496.969 433.816 496.969 435.292C496.969 436.036 496.771 436.69 496.375 437.254C495.979 437.818 495.445 438.25 494.773 438.55C494.101 438.85 493.363 439 492.559 439H487.591V426.4ZM492.343 431.476C493.831 431.476 494.575 430.912 494.575 429.784C494.575 428.668 493.831 428.11 492.343 428.11H489.535V431.476H492.343ZM492.379 437.272C493.219 437.272 493.867 437.098 494.323 436.75C494.791 436.402 495.025 435.892 495.025 435.22C495.025 434.548 494.791 434.044 494.323 433.708C493.867 433.36 493.219 433.186 492.379 433.186H489.535V437.272H492.379ZM499.017 426.4H500.961V437.218H507.333V439H499.017V426.4ZM509.001 426.4H517.263V428.128H510.945V431.62H516.759V433.348H510.945V437.272H517.317V439H509.001V426.4ZM519.513 426.4H521.583L525.849 437.002L530.133 426.4H532.203V439H530.313V430.288C530.133 430.996 529.929 431.62 529.701 432.16L526.821 439H524.895L522.015 432.16C521.835 431.74 521.625 431.116 521.385 430.288V439H519.513V426.4ZM540.026 426.4H543.644C544.94 426.4 546.086 426.646 547.082 427.138C548.09 427.618 548.876 428.332 549.44 429.28C550.004 430.228 550.286 431.368 550.286 432.7C550.286 434.032 550.004 435.172 549.44 436.12C548.876 437.068 548.09 437.788 547.082 438.28C546.086 438.76 544.94 439 543.644 439H540.026V426.4ZM543.698 437.218C545.114 437.218 546.236 436.834 547.064 436.066C547.904 435.298 548.324 434.176 548.324 432.7C548.324 431.224 547.904 430.102 547.064 429.334C546.236 428.566 545.114 428.182 543.698 428.182H541.97V437.218H543.698ZM552.366 426.4H560.628V428.128H554.31V431.62H560.124V433.348H554.31V437.272H560.682V439H552.366V426.4ZM562.878 426.4H571.374V428.128H564.822V431.98H570.834V433.708H564.822V439H562.878V426.4ZM573.407 426.4H575.351V439H573.407V426.4ZM578.171 426.4H580.151L585.821 435.112C586.109 435.604 586.289 435.934 586.361 436.102V426.4H588.251V439H586.253L580.583 430.252C580.295 429.76 580.115 429.43 580.043 429.262V439H578.171V426.4ZM591.073 426.4H593.017V439H591.073V426.4ZM598.591 428.182H594.721V426.4H604.405V428.182H600.535V439H598.591V428.182ZM606.12 426.4H608.064V439H606.12V426.4ZM616.415 439.252C615.227 439.252 614.153 438.976 613.193 438.424C612.245 437.86 611.495 437.08 610.943 436.084C610.391 435.088 610.115 433.96 610.115 432.7C610.115 431.44 610.391 430.312 610.943 429.316C611.495 428.32 612.245 427.546 613.193 426.994C614.153 426.43 615.227 426.148 616.415 426.148C617.603 426.148 618.671 426.43 619.619 426.994C620.579 427.546 621.335 428.32 621.887 429.316C622.439 430.312 622.715 431.44 622.715 432.7C622.715 433.96 622.439 435.088 621.887 436.084C621.335 437.08 620.579 437.86 619.619 438.424C618.671 438.976 617.603 439.252 616.415 439.252ZM616.415 437.47C617.243 437.47 617.981 437.278 618.629 436.894C619.289 436.498 619.805 435.94 620.177 435.22C620.549 434.5 620.735 433.66 620.735 432.7C620.735 431.74 620.549 430.9 620.177 430.18C619.805 429.46 619.289 428.908 618.629 428.524C617.981 428.128 617.243 427.93 616.415 427.93C615.587 427.93 614.843 428.128 614.183 428.524C613.535 428.908 613.025 429.46 612.653 430.18C612.281 430.9 612.095 431.74 612.095 432.7C612.095 433.66 612.281 434.5 612.653 435.22C613.025 435.94 613.535 436.498 614.183 436.894C614.843 437.278 615.587 437.47 616.415 437.47ZM624.788 426.4H626.768L632.438 435.112C632.726 435.604 632.906 435.934 632.978 436.102V426.4H634.868V439H632.87L627.2 430.252C626.912 429.76 626.732 429.43 626.66 429.262V439H624.788V426.4Z" fill="black"/>
<path d="M947.414 439.252C945.974 439.252 944.816 438.892 943.94 438.172C943.076 437.44 942.518 436.48 942.266 435.292L943.994 434.392C944.378 436.492 945.518 437.542 947.414 437.542C948.23 437.542 948.884 437.35 949.376 436.966C949.868 436.582 950.114 436.102 950.114 435.526C950.114 434.902 949.85 434.416 949.322 434.068C948.794 433.708 947.978 433.426 946.874 433.222C945.614 432.982 944.624 432.562 943.904 431.962C943.196 431.35 942.842 430.534 942.842 429.514C942.842 428.854 943.022 428.272 943.382 427.768C943.754 427.252 944.264 426.856 944.912 426.58C945.56 426.292 946.304 426.148 947.144 426.148C948.308 426.148 949.292 426.418 950.096 426.958C950.9 427.498 951.482 428.278 951.842 429.298L950.294 430.198C950.03 429.442 949.628 428.866 949.088 428.47C948.548 428.062 947.894 427.858 947.126 427.858C946.43 427.858 945.848 428.002 945.38 428.29C944.924 428.566 944.696 428.962 944.696 429.478C944.696 430.042 944.96 430.492 945.488 430.828C946.028 431.164 946.856 431.446 947.972 431.674C949.34 431.962 950.36 432.406 951.032 433.006C951.716 433.606 952.058 434.41 952.058 435.418C952.058 436.114 951.866 436.756 951.482 437.344C951.098 437.932 950.552 438.4 949.844 438.748C949.148 439.084 948.338 439.252 947.414 439.252ZM959.711 439.252C958.523 439.252 957.449 438.976 956.489 438.424C955.541 437.86 954.791 437.08 954.239 436.084C953.687 435.088 953.411 433.96 953.411 432.7C953.411 431.44 953.687 430.312 954.239 429.316C954.791 428.32 955.541 427.546 956.489 426.994C957.449 426.43 958.523 426.148 959.711 426.148C960.899 426.148 961.967 426.43 962.915 426.994C963.875 427.546 964.631 428.32 965.183 429.316C965.735 430.312 966.011 431.44 966.011 432.7C966.011 433.96 965.735 435.088 965.183 436.084C964.631 437.08 963.875 437.86 962.915 438.424C961.967 438.976 960.899 439.252 959.711 439.252ZM959.711 437.47C960.539 437.47 961.277 437.278 961.925 436.894C962.585 436.498 963.101 435.94 963.473 435.22C963.845 434.5 964.031 433.66 964.031 432.7C964.031 431.74 963.845 430.9 963.473 430.18C963.101 429.46 962.585 428.908 961.925 428.524C961.277 428.128 960.539 427.93 959.711 427.93C958.883 427.93 958.139 428.128 957.479 428.524C956.831 428.908 956.321 429.46 955.949 430.18C955.577 430.9 955.391 431.74 955.391 432.7C955.391 433.66 955.577 434.5 955.949 435.22C956.321 435.94 956.831 436.498 957.479 436.894C958.139 437.278 958.883 437.47 959.711 437.47ZM968.084 426.4H970.028V437.218H976.4V439H968.084V426.4ZM982.381 439.252C981.421 439.252 980.563 439.066 979.807 438.694C979.063 438.31 978.481 437.752 978.061 437.02C977.641 436.288 977.431 435.418 977.431 434.41V426.4H979.375V434.248C979.375 435.256 979.645 436.048 980.185 436.624C980.737 437.188 981.469 437.47 982.381 437.47C983.293 437.47 984.019 437.188 984.559 436.624C985.111 436.048 985.387 435.256 985.387 434.248V426.4H987.331V434.41C987.331 435.418 987.121 436.288 986.701 437.02C986.281 437.752 985.693 438.31 984.937 438.694C984.193 439.066 983.341 439.252 982.381 439.252ZM992.723 428.182H988.853V426.4H998.537V428.182H994.667V439H992.723V428.182ZM1000.25 426.4H1002.2V439H1000.25V426.4ZM1010.55 439.252C1009.36 439.252 1008.29 438.976 1007.33 438.424C1006.38 437.86 1005.63 437.08 1005.08 436.084C1004.52 435.088 1004.25 433.96 1004.25 432.7C1004.25 431.44 1004.52 430.312 1005.08 429.316C1005.63 428.32 1006.38 427.546 1007.33 426.994C1008.29 426.43 1009.36 426.148 1010.55 426.148C1011.74 426.148 1012.8 426.43 1013.75 426.994C1014.71 427.546 1015.47 428.32 1016.02 429.316C1016.57 430.312 1016.85 431.44 1016.85 432.7C1016.85 433.96 1016.57 435.088 1016.02 436.084C1015.47 437.08 1014.71 437.86 1013.75 438.424C1012.8 438.976 1011.74 439.252 1010.55 439.252ZM1010.55 437.47C1011.38 437.47 1012.11 437.278 1012.76 436.894C1013.42 436.498 1013.94 435.94 1014.31 435.22C1014.68 434.5 1014.87 433.66 1014.87 432.7C1014.87 431.74 1014.68 430.9 1014.31 430.18C1013.94 429.46 1013.42 428.908 1012.76 428.524C1012.11 428.128 1011.38 427.93 1010.55 427.93C1009.72 427.93 1008.98 428.128 1008.32 428.524C1007.67 428.908 1007.16 429.46 1006.79 430.18C1006.41 430.9 1006.23 431.74 1006.23 432.7C1006.23 433.66 1006.41 434.5 1006.79 435.22C1007.16 435.94 1007.67 436.498 1008.32 436.894C1008.98 437.278 1009.72 437.47 1010.55 437.47ZM1018.92 426.4H1020.9L1026.57 435.112C1026.86 435.604 1027.04 435.934 1027.11 436.102V426.4H1029V439H1027L1021.33 430.252C1021.04 429.76 1020.86 429.43 1020.79 429.262V439H1018.92V426.4Z" fill="black"/>
<path d="M654.058 163H655.57V150.4H654.058V163ZM658.378 163H659.818V158.122C659.818 156.394 661.06 155.134 662.428 155.134C663.724 155.134 664.606 155.908 664.606 157.312V163H666.046V156.934C666.046 154.81 664.642 153.82 662.914 153.82C661.636 153.82 660.484 154.54 659.818 155.656V154.072H658.378V163ZM668.655 163H670.113V155.206H672.219V154.072H670.113V152.344C670.113 151.264 670.707 150.796 671.427 150.796C671.697 150.796 671.895 150.832 672.129 150.922L672.363 149.68C672.111 149.572 671.769 149.5 671.427 149.5C669.627 149.5 668.655 150.616 668.655 152.416V154.072H667.287V155.206H668.655V163ZM677.616 163.252C680.064 163.252 682.296 161.578 682.296 158.536C682.296 155.494 680.064 153.82 677.616 153.82C675.186 153.82 672.954 155.494 672.954 158.536C672.954 161.578 675.186 163.252 677.616 163.252ZM677.616 161.938C675.834 161.938 674.412 160.552 674.412 158.536C674.412 156.52 675.834 155.134 677.616 155.134C679.416 155.134 680.838 156.52 680.838 158.536C680.838 160.552 679.416 161.938 677.616 161.938ZM684.306 163H685.746V158.284C685.746 156.556 686.772 155.134 688.122 155.134C688.392 155.134 688.626 155.17 688.806 155.224L689.04 153.91C688.806 153.838 688.59 153.82 688.302 153.82C687.114 153.82 686.178 154.63 685.746 155.674V154.072H684.306V163ZM690.616 163H692.056V158.14C692.056 156.178 693.1 155.08 694.27 155.08C695.386 155.08 695.944 155.836 695.944 156.952V163H697.402V158.212C697.402 156.07 698.464 155.08 699.598 155.08C700.714 155.08 701.326 155.692 701.326 156.898V163H702.784V156.484C702.784 154.828 701.686 153.82 700.03 153.82C698.842 153.82 697.762 154.504 697.204 155.53C696.826 154.432 695.89 153.82 694.738 153.82C693.586 153.82 692.578 154.504 692.056 155.458V154.072H690.616V163ZM707.745 163.252C709.059 163.252 710.355 162.442 710.841 161.236C710.841 162.154 711.129 162.73 711.363 163H712.821C712.389 162.316 712.263 161.794 712.263 160.768V156.772C712.263 154.9 711.003 153.82 708.717 153.82C706.647 153.82 705.243 155.008 705.243 156.394C705.243 156.628 705.297 156.898 705.387 157.096L706.629 156.682C706.593 156.538 706.593 156.502 706.593 156.43C706.593 155.674 707.313 154.972 708.717 154.972C710.049 154.972 710.823 155.566 710.823 156.736V157.15L707.799 157.636C706.179 157.888 704.757 158.77 704.757 160.516C704.757 162.118 705.927 163.252 707.745 163.252ZM707.979 161.992C706.899 161.992 706.197 161.38 706.197 160.462C706.197 159.544 706.881 158.914 708.087 158.716L710.823 158.266V158.626C710.823 160.354 709.779 161.992 707.979 161.992ZM717.583 163.252C718.051 163.252 718.429 163.18 718.735 163.072L718.609 161.866C718.429 161.92 718.159 161.974 717.907 161.974C717.097 161.974 716.683 161.542 716.683 160.606V155.206H718.807V154.072H716.683V151.66H715.225V154.072H713.713V155.206H715.225V160.714C715.225 162.55 716.305 163.252 717.583 163.252ZM720.584 152.506H722.294V150.76H720.584V152.506ZM720.728 163H722.168V154.072H720.728V163ZM728.751 163.252C731.199 163.252 733.431 161.578 733.431 158.536C733.431 155.494 731.199 153.82 728.751 153.82C726.321 153.82 724.089 155.494 724.089 158.536C724.089 161.578 726.321 163.252 728.751 163.252ZM728.751 161.938C726.969 161.938 725.547 160.552 725.547 158.536C725.547 156.52 726.969 155.134 728.751 155.134C730.551 155.134 731.973 156.52 731.973 158.536C731.973 160.552 730.551 161.938 728.751 161.938ZM735.441 163H736.881V158.122C736.881 156.394 738.123 155.134 739.491 155.134C740.787 155.134 741.669 155.908 741.669 157.312V163H743.109V156.934C743.109 154.81 741.705 153.82 739.977 153.82C738.699 153.82 737.547 154.54 736.881 155.656V154.072H735.441V163ZM644.657 184H646.259L647.699 180.292H653.243L654.683 184H656.285L651.245 171.4H649.697L644.657 184ZM648.203 178.996L650.129 174.028C650.255 173.74 650.399 173.326 650.471 173.074C650.543 173.326 650.687 173.74 650.813 174.028L652.739 178.996H648.203ZM657.692 184H659.132V179.284C659.132 177.556 660.158 176.134 661.508 176.134C661.778 176.134 662.012 176.17 662.192 176.224L662.426 174.91C662.192 174.838 661.976 174.82 661.688 174.82C660.5 174.82 659.564 175.63 659.132 176.674V175.072H657.692V184ZM667.542 184.252C669.36 184.252 670.638 183.352 671.412 181.984L670.314 181.282C669.702 182.308 668.928 182.92 667.56 182.92C665.778 182.92 664.446 181.588 664.446 179.536C664.446 177.448 665.832 176.152 667.56 176.152C668.658 176.152 669.63 176.656 670.242 177.79L671.412 177.07C670.728 175.648 669.432 174.82 667.542 174.82C665.058 174.82 662.97 176.764 662.97 179.536C662.97 182.29 664.914 184.252 667.542 184.252ZM673.232 184H674.672V179.194C674.672 177.394 676.004 176.134 677.408 176.134C678.722 176.134 679.568 176.908 679.568 178.312V184H681.026V177.952C681.026 175.99 679.82 174.82 677.894 174.82C676.526 174.82 675.338 175.54 674.672 176.71V171.4H673.232V184ZM683.476 173.506H685.186V171.76H683.476V173.506ZM683.62 184H685.06V175.072H683.62V184ZM690.706 184.252C691.174 184.252 691.552 184.18 691.858 184.072L691.732 182.866C691.552 182.92 691.282 182.974 691.03 182.974C690.22 182.974 689.806 182.542 689.806 181.606V176.206H691.93V175.072H689.806V172.66H688.348V175.072H686.836V176.206H688.348V181.714C688.348 183.55 689.428 184.252 690.706 184.252ZM697.386 184.252C699.384 184.252 700.662 183.316 701.49 181.642L700.41 181.012C699.852 182.182 698.97 183.01 697.44 183.01C695.64 183.01 694.47 181.588 694.38 179.77H701.742V179.284C701.742 176.674 700.086 174.82 697.458 174.82C694.956 174.82 692.958 176.764 692.958 179.536C692.958 182.308 694.938 184.252 697.386 184.252ZM694.38 178.6C694.668 177.124 695.892 175.99 697.44 175.99C698.898 175.99 700.194 176.89 700.284 178.6H694.38ZM707.761 184.252C709.579 184.252 710.857 183.352 711.631 181.984L710.533 181.282C709.921 182.308 709.147 182.92 707.779 182.92C705.997 182.92 704.665 181.588 704.665 179.536C704.665 177.448 706.051 176.152 707.779 176.152C708.877 176.152 709.849 176.656 710.461 177.79L711.631 177.07C710.947 175.648 709.651 174.82 707.761 174.82C705.277 174.82 703.189 176.764 703.189 179.536C703.189 182.29 705.133 184.252 707.761 184.252ZM716.475 184.252C716.943 184.252 717.321 184.18 717.627 184.072L717.501 182.866C717.321 182.92 717.051 182.974 716.799 182.974C715.989 182.974 715.575 182.542 715.575 181.606V176.206H717.699V175.072H715.575V172.66H714.117V175.072H712.605V176.206H714.117V181.714C714.117 183.55 715.197 184.252 716.475 184.252ZM722.631 184.252C723.927 184.252 725.043 183.532 725.619 182.434V184H727.077V175.072H725.619V179.824C725.619 181.678 724.449 182.938 723.009 182.938C721.713 182.938 720.867 182.164 720.867 180.724V175.072H719.427V180.904C719.427 183.262 720.921 184.252 722.631 184.252ZM729.587 184H731.027V179.284C731.027 177.556 732.053 176.134 733.403 176.134C733.673 176.134 733.907 176.17 734.087 176.224L734.321 174.91C734.087 174.838 733.871 174.82 733.583 174.82C732.395 174.82 731.459 175.63 731.027 176.674V175.072H729.587V184ZM739.293 184.252C741.291 184.252 742.569 183.316 743.397 181.642L742.317 181.012C741.759 182.182 740.877 183.01 739.347 183.01C737.547 183.01 736.377 181.588 736.287 179.77H743.649V179.284C743.649 176.674 741.993 174.82 739.365 174.82C736.863 174.82 734.865 176.764 734.865 179.536C734.865 182.308 736.845 184.252 739.293 184.252ZM736.287 178.6C736.575 177.124 737.799 175.99 739.347 175.99C740.805 175.99 742.101 176.89 742.191 178.6H736.287Z" fill="black"/>
<path d="M786.203 184H789.677C793.439 184 796.085 181.678 796.085 177.7C796.085 173.722 793.439 171.4 789.677 171.4H786.203V184ZM787.715 182.65V172.75H789.623C792.521 172.75 794.555 174.352 794.555 177.7C794.555 181.048 792.521 182.65 789.623 182.65H787.715ZM802.179 184.252C804.177 184.252 805.455 183.316 806.283 181.642L805.203 181.012C804.645 182.182 803.763 183.01 802.233 183.01C800.433 183.01 799.263 181.588 799.173 179.77H806.535V179.284C806.535 176.674 804.879 174.82 802.251 174.82C799.749 174.82 797.751 176.764 797.751 179.536C797.751 182.308 799.731 184.252 802.179 184.252ZM799.173 178.6C799.461 177.124 800.685 175.99 802.233 175.99C803.691 175.99 804.987 176.89 805.077 178.6H799.173ZM810.742 184H812.182L815.764 175.072H814.216L811.462 182.272L808.708 175.072H807.16L810.742 184ZM820.759 184.252C822.757 184.252 824.035 183.316 824.863 181.642L823.783 181.012C823.225 182.182 822.343 183.01 820.813 183.01C819.013 183.01 817.843 181.588 817.753 179.77H825.115V179.284C825.115 176.674 823.459 174.82 820.831 174.82C818.329 174.82 816.331 176.764 816.331 179.536C816.331 182.308 818.311 184.252 820.759 184.252ZM817.753 178.6C818.041 177.124 819.265 175.99 820.813 175.99C822.271 175.99 823.567 176.89 823.657 178.6H817.753ZM827.173 184H828.613V171.4H827.173V184ZM835.284 184.252C837.732 184.252 839.964 182.578 839.964 179.536C839.964 176.494 837.732 174.82 835.284 174.82C832.854 174.82 830.622 176.494 830.622 179.536C830.622 182.578 832.854 184.252 835.284 184.252ZM835.284 182.938C833.502 182.938 832.08 181.552 832.08 179.536C832.08 177.52 833.502 176.134 835.284 176.134C837.084 176.134 838.506 177.52 838.506 179.536C838.506 181.552 837.084 182.938 835.284 182.938ZM841.974 187.672H843.414V182.56C844.044 183.622 845.196 184.252 846.582 184.252C849.048 184.252 850.83 182.272 850.83 179.536C850.83 176.764 849.03 174.82 846.654 174.82C845.16 174.82 843.972 175.684 843.414 176.692V175.072H841.974V187.672ZM846.33 182.938C844.548 182.938 843.306 181.48 843.306 179.536C843.306 177.592 844.548 176.134 846.33 176.134C848.112 176.134 849.354 177.556 849.354 179.536C849.354 181.516 848.112 182.938 846.33 182.938ZM852.837 184H854.277V179.14C854.277 177.178 855.321 176.08 856.491 176.08C857.607 176.08 858.165 176.836 858.165 177.952V184H859.623V179.212C859.623 177.07 860.685 176.08 861.819 176.08C862.935 176.08 863.547 176.692 863.547 177.898V184H865.005V177.484C865.005 175.828 863.907 174.82 862.251 174.82C861.063 174.82 859.983 175.504 859.425 176.53C859.047 175.432 858.111 174.82 856.959 174.82C855.807 174.82 854.799 175.504 854.277 176.458V175.072H852.837V184ZM871.314 184.252C873.312 184.252 874.59 183.316 875.418 181.642L874.338 181.012C873.78 182.182 872.898 183.01 871.368 183.01C869.568 183.01 868.398 181.588 868.308 179.77H875.67V179.284C875.67 176.674 874.014 174.82 871.386 174.82C868.884 174.82 866.886 176.764 866.886 179.536C866.886 182.308 868.866 184.252 871.314 184.252ZM868.308 178.6C868.596 177.124 869.82 175.99 871.368 175.99C872.826 175.99 874.122 176.89 874.212 178.6H868.308ZM877.728 184H879.168V179.122C879.168 177.394 880.41 176.134 881.778 176.134C883.074 176.134 883.956 176.908 883.956 178.312V184H885.396V177.934C885.396 175.81 883.992 174.82 882.264 174.82C880.986 174.82 879.834 175.54 879.168 176.656V175.072H877.728V184ZM890.561 184.252C891.029 184.252 891.407 184.18 891.713 184.072L891.587 182.866C891.407 182.92 891.137 182.974 890.885 182.974C890.075 182.974 889.661 182.542 889.661 181.606V176.206H891.785V175.072H889.661V172.66H888.203V175.072H886.691V176.206H888.203V181.714C888.203 183.55 889.283 184.252 890.561 184.252Z" fill="black"/>
<path d="M785.717 225H793.637V223.65H787.229V212.4H785.717V225ZM798.341 225.252C799.655 225.252 800.951 224.442 801.437 223.236C801.437 224.154 801.725 224.73 801.959 225H803.417C802.985 224.316 802.859 223.794 802.859 222.768V218.772C802.859 216.9 801.599 215.82 799.313 215.82C797.243 215.82 795.839 217.008 795.839 218.394C795.839 218.628 795.893 218.898 795.983 219.096L797.225 218.682C797.189 218.538 797.189 218.502 797.189 218.43C797.189 217.674 797.909 216.972 799.313 216.972C800.645 216.972 801.419 217.566 801.419 218.736V219.15L798.395 219.636C796.775 219.888 795.353 220.77 795.353 222.516C795.353 224.118 796.523 225.252 798.341 225.252ZM798.575 223.992C797.495 223.992 796.793 223.38 796.793 222.462C796.793 221.544 797.477 220.914 798.683 220.716L801.419 220.266V220.626C801.419 222.354 800.375 223.992 798.575 223.992ZM808.533 225.252C809.829 225.252 810.945 224.532 811.521 223.434V225H812.979V216.072H811.521V220.824C811.521 222.678 810.351 223.938 808.911 223.938C807.615 223.938 806.769 223.164 806.769 221.724V216.072H805.329V221.904C805.329 224.262 806.823 225.252 808.533 225.252ZM815.489 225H816.929V220.122C816.929 218.394 818.171 217.134 819.539 217.134C820.835 217.134 821.717 217.908 821.717 219.312V225H823.157V218.934C823.157 216.81 821.753 215.82 820.025 215.82C818.747 215.82 817.595 216.54 816.929 217.656V216.072H815.489V225ZM829.628 225.252C831.446 225.252 832.724 224.352 833.498 222.984L832.4 222.282C831.788 223.308 831.014 223.92 829.646 223.92C827.864 223.92 826.532 222.588 826.532 220.536C826.532 218.448 827.918 217.152 829.646 217.152C830.744 217.152 831.716 217.656 832.328 218.79L833.498 218.07C832.814 216.648 831.518 215.82 829.628 215.82C827.144 215.82 825.056 217.764 825.056 220.536C825.056 223.29 827 225.252 829.628 225.252ZM835.317 225H836.757V220.194C836.757 218.394 838.089 217.134 839.493 217.134C840.807 217.134 841.653 217.908 841.653 219.312V225H843.111V218.952C843.111 216.99 841.905 215.82 839.979 215.82C838.611 215.82 837.423 216.54 836.757 217.71V212.4H835.317V225Z" fill="black"/>
<path d="M702.052 225H703.708L708.37 212.4H706.786L703.348 221.94C703.348 221.94 703.078 222.732 702.88 223.398C702.682 222.732 702.412 221.94 702.412 221.94L698.974 212.4H697.39L702.052 225ZM709.562 214.506H711.272V212.76H709.562V214.506ZM709.706 225H711.146V216.072H709.706V225ZM716.798 225.252C718.976 225.252 720.146 223.884 720.146 222.408C720.146 220.878 719.03 220.122 717.176 219.762C715.682 219.474 714.8 219.024 714.8 218.178C714.8 217.386 715.61 216.972 716.582 216.972C717.626 216.972 718.508 217.512 718.94 218.646L720.056 217.998C719.444 216.63 718.4 215.82 716.564 215.82C714.89 215.82 713.468 216.72 713.468 218.214C713.468 219.762 714.8 220.554 716.51 220.86C718.04 221.148 718.742 221.58 718.742 222.48C718.742 223.398 717.968 224.01 716.798 224.01C715.466 224.01 714.584 223.182 714.17 221.904L712.964 222.66C713.522 224.046 714.782 225.252 716.798 225.252ZM725.338 225.252C726.634 225.252 727.75 224.532 728.326 223.434V225H729.784V216.072H728.326V220.824C728.326 222.678 727.156 223.938 725.716 223.938C724.42 223.938 723.574 223.164 723.574 221.724V216.072H722.134V221.904C722.134 224.262 723.628 225.252 725.338 225.252ZM734.763 225.252C736.077 225.252 737.373 224.442 737.859 223.236C737.859 224.154 738.147 224.73 738.381 225H739.839C739.407 224.316 739.281 223.794 739.281 222.768V218.772C739.281 216.9 738.021 215.82 735.735 215.82C733.665 215.82 732.261 217.008 732.261 218.394C732.261 218.628 732.315 218.898 732.405 219.096L733.647 218.682C733.611 218.538 733.611 218.502 733.611 218.43C733.611 217.674 734.331 216.972 735.735 216.972C737.067 216.972 737.841 217.566 737.841 218.736V219.15L734.817 219.636C733.197 219.888 731.775 220.77 731.775 222.516C731.775 224.118 732.945 225.252 734.763 225.252ZM734.997 223.992C733.917 223.992 733.215 223.38 733.215 222.462C733.215 221.544 733.899 220.914 735.105 220.716L737.841 220.266V220.626C737.841 222.354 736.797 223.992 734.997 223.992ZM741.681 225H743.121V212.4H741.681V225ZM690.252 246H693.726C697.488 246 700.134 243.678 700.134 239.7C700.134 235.722 697.488 233.4 693.726 233.4H690.252V246ZM691.764 244.65V234.75H693.672C696.57 234.75 698.604 236.352 698.604 239.7C698.604 243.048 696.57 244.65 693.672 244.65H691.764ZM706.228 246.252C708.226 246.252 709.504 245.316 710.332 243.642L709.252 243.012C708.694 244.182 707.812 245.01 706.282 245.01C704.482 245.01 703.312 243.588 703.222 241.77H710.584V241.284C710.584 238.674 708.928 236.82 706.3 236.82C703.798 236.82 701.8 238.764 701.8 241.536C701.8 244.308 703.78 246.252 706.228 246.252ZM703.222 240.6C703.51 239.124 704.734 237.99 706.282 237.99C707.74 237.99 709.036 238.89 709.126 240.6H703.222ZM715.568 246.252C717.746 246.252 718.916 244.884 718.916 243.408C718.916 241.878 717.8 241.122 715.946 240.762C714.452 240.474 713.57 240.024 713.57 239.178C713.57 238.386 714.38 237.972 715.352 237.972C716.396 237.972 717.278 238.512 717.71 239.646L718.826 238.998C718.214 237.63 717.17 236.82 715.334 236.82C713.66 236.82 712.238 237.72 712.238 239.214C712.238 240.762 713.57 241.554 715.28 241.86C716.81 242.148 717.512 242.58 717.512 243.48C717.512 244.398 716.738 245.01 715.568 245.01C714.236 245.01 713.354 244.182 712.94 242.904L711.734 243.66C712.292 245.046 713.552 246.252 715.568 246.252ZM720.759 235.506H722.469V233.76H720.759V235.506ZM720.903 246H722.343V237.072H720.903V246ZM728.745 249.924C731.463 249.924 732.993 248.25 732.993 245.406V237.072H731.535V238.35C730.977 237.45 729.951 236.82 728.529 236.82C726.297 236.82 724.353 238.476 724.353 241.338C724.353 244.128 726.189 245.856 728.529 245.856C729.951 245.856 730.923 245.208 731.535 244.218V245.514C731.535 247.674 730.563 248.718 728.745 248.718C727.215 248.718 726.279 248.196 726.279 247.35C726.279 247.098 726.333 246.9 726.405 246.702L725.055 246.306C724.911 246.576 724.821 246.9 724.821 247.278C724.821 248.79 726.207 249.924 728.745 249.924ZM728.709 244.596C726.963 244.596 725.793 243.354 725.793 241.338C725.793 239.322 726.963 238.08 728.709 238.08C730.455 238.08 731.643 239.322 731.643 241.338C731.643 243.354 730.455 244.596 728.709 244.596ZM735.441 246H736.881V241.122C736.881 239.394 738.123 238.134 739.491 238.134C740.787 238.134 741.669 238.908 741.669 240.312V246H743.109V239.934C743.109 237.81 741.705 236.82 739.977 236.82C738.699 236.82 737.547 237.54 736.881 238.656V237.072H735.441V246Z" fill="black"/>
<path d="M347.332 184.252C350.086 184.252 351.922 182.596 351.922 180.472C351.922 178.492 350.464 177.358 347.836 176.854C345.622 176.422 344.362 175.738 344.362 174.424C344.362 173.164 345.55 172.462 347.08 172.462C348.718 172.462 349.924 173.326 350.482 174.928L351.67 174.226C351.022 172.318 349.348 171.148 347.098 171.148C344.65 171.148 342.904 172.498 342.904 174.442C342.904 176.548 344.578 177.592 347.026 178.042C349.15 178.438 350.41 179.14 350.41 180.58C350.41 181.822 349.258 182.938 347.314 182.938C345.262 182.938 344.074 181.696 343.66 179.644L342.31 180.346C342.76 182.524 344.452 184.252 347.332 184.252ZM356.928 184.252C357.396 184.252 357.774 184.18 358.08 184.072L357.954 182.866C357.774 182.92 357.504 182.974 357.252 182.974C356.442 182.974 356.028 182.542 356.028 181.606V176.206H358.152V175.072H356.028V172.66H354.57V175.072H353.058V176.206H354.57V181.714C354.57 183.55 355.65 184.252 356.928 184.252ZM360.073 184H361.513V179.284C361.513 177.556 362.539 176.134 363.889 176.134C364.159 176.134 364.393 176.17 364.573 176.224L364.807 174.91C364.573 174.838 364.357 174.82 364.069 174.82C362.881 174.82 361.945 175.63 361.513 176.674V175.072H360.073V184ZM368.554 184.252C369.868 184.252 371.164 183.442 371.65 182.236C371.65 183.154 371.938 183.73 372.172 184H373.63C373.198 183.316 373.072 182.794 373.072 181.768V177.772C373.072 175.9 371.812 174.82 369.526 174.82C367.456 174.82 366.052 176.008 366.052 177.394C366.052 177.628 366.106 177.898 366.196 178.096L367.438 177.682C367.402 177.538 367.402 177.502 367.402 177.43C367.402 176.674 368.122 175.972 369.526 175.972C370.858 175.972 371.632 176.566 371.632 177.736V178.15L368.608 178.636C366.988 178.888 365.566 179.77 365.566 181.516C365.566 183.118 366.736 184.252 368.554 184.252ZM368.788 182.992C367.708 182.992 367.006 182.38 367.006 181.462C367.006 180.544 367.69 179.914 368.896 179.716L371.632 179.266V179.626C371.632 181.354 370.588 182.992 368.788 182.992ZM378.391 184.252C378.859 184.252 379.237 184.18 379.543 184.072L379.417 182.866C379.237 182.92 378.967 182.974 378.715 182.974C377.905 182.974 377.491 182.542 377.491 181.606V176.206H379.615V175.072H377.491V172.66H376.033V175.072H374.521V176.206H376.033V181.714C376.033 183.55 377.113 184.252 378.391 184.252ZM385.072 184.252C387.07 184.252 388.348 183.316 389.176 181.642L388.096 181.012C387.538 182.182 386.656 183.01 385.126 183.01C383.326 183.01 382.156 181.588 382.066 179.77H389.428V179.284C389.428 176.674 387.772 174.82 385.144 174.82C382.642 174.82 380.644 176.764 380.644 179.536C380.644 182.308 382.624 184.252 385.072 184.252ZM382.066 178.6C382.354 177.124 383.578 175.99 385.126 175.99C386.584 175.99 387.88 176.89 387.97 178.6H382.066ZM395.301 187.924C398.019 187.924 399.549 186.25 399.549 183.406V175.072H398.091V176.35C397.533 175.45 396.507 174.82 395.085 174.82C392.853 174.82 390.909 176.476 390.909 179.338C390.909 182.128 392.745 183.856 395.085 183.856C396.507 183.856 397.479 183.208 398.091 182.218V183.514C398.091 185.674 397.119 186.718 395.301 186.718C393.771 186.718 392.835 186.196 392.835 185.35C392.835 185.098 392.889 184.9 392.961 184.702L391.611 184.306C391.467 184.576 391.377 184.9 391.377 185.278C391.377 186.79 392.763 187.924 395.301 187.924ZM395.265 182.596C393.519 182.596 392.349 181.354 392.349 179.338C392.349 177.322 393.519 176.08 395.265 176.08C397.011 176.08 398.199 177.322 398.199 179.338C398.199 181.354 397.011 182.596 395.265 182.596ZM402.789 187.78C403.923 187.78 404.625 187.24 405.129 185.98L409.593 175.072H407.991L405.219 182.056L402.429 175.072H400.791L404.445 184.018L403.851 185.53C403.599 186.16 403.257 186.448 402.753 186.448C402.465 186.448 402.267 186.376 402.051 186.268L401.799 187.618C402.087 187.726 402.429 187.78 402.789 187.78Z" fill="black"/>
<path d="M164.41 200.001L19.9102 200.001L19.9102 155" stroke="#2400FF"/>
<path d="M177.41 200.001L316.91 200.001" stroke="#2400FF"/>
<path d="M328.41 200.001L467.91 200.001" stroke="#2400FF"/>
<path d="M479.41 200L612.41 200" stroke="#2400FF"/>
<path d="M623.41 200.001L758.91 200.001" stroke="#2400FF"/>
<path d="M750.41 189.735V205.206L763.806 212.941V197.471L750.41 189.735Z" stroke="#2400FF" stroke-miterlimit="1" stroke-linecap="square" stroke-linejoin="round"/>
<path d="M763.806 197.47L777.209 189.735L763.806 182L750.41 189.735L763.806 197.47Z" stroke="#2400FF" stroke-miterlimit="1" stroke-linecap="square" stroke-linejoin="round"/>
<path d="M777.203 189.735V205.206L763.807 212.941V197.471L777.203 189.735Z" stroke="#2400FF" stroke-miterlimit="1" stroke-linecap="square" stroke-linejoin="round"/>
<path d="M308.41 189.735V205.206L321.806 212.941V197.471L308.41 189.735Z" stroke="#2400FF" stroke-miterlimit="1" stroke-linecap="square" stroke-linejoin="round"/>
<path d="M321.806 197.47L335.209 189.735L321.806 182L308.41 189.735L321.806 197.47Z" stroke="#2400FF" stroke-miterlimit="1" stroke-linecap="square" stroke-linejoin="round"/>
<path d="M335.203 189.735V205.206L321.807 212.941V197.471L335.203 189.735Z" stroke="#2400FF" stroke-miterlimit="1" stroke-linecap="square" stroke-linejoin="round"/>
<path d="M157.41 189.735V205.206L170.806 212.941V197.471L157.41 189.735Z" stroke="#2400FF" stroke-miterlimit="1" stroke-linecap="square" stroke-linejoin="round"/>
<path d="M170.806 197.47L184.209 189.735L170.806 182L157.41 189.735L170.806 197.47Z" stroke="#2400FF" stroke-miterlimit="1" stroke-linecap="square" stroke-linejoin="round"/>
<path d="M184.203 189.735V205.206L170.807 212.941V197.471L184.203 189.735Z" stroke="#2400FF" stroke-miterlimit="1" stroke-linecap="square" stroke-linejoin="round"/>
<path d="M460.41 189.735V205.206L473.806 212.941V197.471L460.41 189.735Z" stroke="#2400FF" stroke-miterlimit="1" stroke-linecap="square" stroke-linejoin="round"/>
<path d="M473.806 197.47L487.209 189.735L473.806 182L460.41 189.735L473.806 197.47Z" stroke="#2400FF" stroke-miterlimit="1" stroke-linecap="square" stroke-linejoin="round"/>
<path d="M487.203 189.735V205.206L473.807 212.941V197.471L487.203 189.735Z" stroke="#2400FF" stroke-miterlimit="1" stroke-linecap="square" stroke-linejoin="round"/>
<path d="M605.41 189.735V205.206L618.806 212.941V197.471L605.41 189.735Z" stroke="#2400FF" stroke-miterlimit="1" stroke-linecap="square" stroke-linejoin="round"/>
<path d="M618.806 197.47L632.209 189.735L618.806 182L605.41 189.735L618.806 197.47Z" stroke="#2400FF" stroke-miterlimit="1" stroke-linecap="square" stroke-linejoin="round"/>
<path d="M632.203 189.735V205.206L618.807 212.941V197.471L632.203 189.735Z" stroke="#2400FF" stroke-miterlimit="1" stroke-linecap="square" stroke-linejoin="round"/>
<path d="M1.41016 122.738V144.214L20.006 154.951V133.476L1.41016 122.738Z" stroke="#2400FF" stroke-miterlimit="1" stroke-linecap="square" stroke-linejoin="round"/>
<path d="M20.006 133.475L38.6112 122.738L20.006 112L1.41016 122.738L20.006 133.475Z" stroke="#2400FF" stroke-miterlimit="1" stroke-linecap="square" stroke-linejoin="round"/>
<path d="M38.6017 122.738V144.214L20.0059 154.951V133.476L38.6017 122.738Z" stroke="#2400FF" stroke-miterlimit="1" stroke-linecap="square" stroke-linejoin="round"/>
</svg>
