<svg xmlns="http://www.w3.org/2000/svg" viewBox="0 0 1058.78 539.9"><defs><style>.cls-1{fill:none;stroke:#2400ff;stroke-width:3px;}</style></defs><title>Asset 5</title><g id="Layer_2" data-name="Layer 2"><g id="Layer_1-2" data-name="Layer 1"><path class="cls-1" d="M26.06,6.06H61.2v95.67H168.58V6.06h35.15V233.84H168.58V133.62H61.2V233.84H26.06Z"/><path class="cls-1" d="M329.5,223.27a109,109,0,0,1-40.84-42.14q-15-27-15-61.18t15-61.18A109.1,109.1,0,0,1,329.5,16.63Q355.38,1.49,387.59,1.5t58.08,15.13a109,109,0,0,1,40.84,42.14q15,27,15,61.18t-15,61.18a109,109,0,0,1-40.84,42.14q-25.86,15.12-58.08,15.13T329.5,223.27Zm98.28-27.66q17.73-10.58,27.82-30.1T465.69,120q0-26-10.09-45.56t-27.82-30.1Q410,33.72,387.59,33.72T347.4,44.29q-17.75,10.58-27.82,30.1T309.49,120q0,26,10.09,45.56t27.82,30.1q17.73,10.57,40.19,10.57T427.78,195.61Z"/><path class="cls-1" d="M544.44,6.06h36.44L621.56,162.9q4.23,16.93,5.86,24.73l5.53-25L673.62,6.06h37.1L751.4,162.58l5.53,25q1.62-7.8,5.86-24.73L803.46,6.06h36.45L776.45,233.84H738.71l-46.54-179-46.53,179H607.89Z"/><path class="cls-1" d="M1022.13,6.06h35.15V233.84h-35.15Z"/><path class="cls-1" d="M2,306.06H38.42L79.1,462.9q4.22,16.94,5.85,24.73l5.54-25.05,40.67-156.52h37.1l40.68,156.52,5.53,25.05q1.62-7.8,5.86-24.73L261,306.06h36.45L234,533.84H196.24l-46.53-179-46.53,179H65.43Z"/><path class="cls-1" d="M396.21,523.27a109,109,0,0,1-40.84-42.14q-15-27-15-61.18t15-61.18a109.1,109.1,0,0,1,40.84-42.14q25.88-15.13,58.09-15.13t58.08,15.13a109,109,0,0,1,40.84,42.14q15,27,15,61.18t-15,61.18a109,109,0,0,1-40.84,42.14q-25.86,15.12-58.08,15.13T396.21,523.27Zm98.28-27.66q17.73-10.58,27.82-30.1T532.4,420q0-26-10.09-45.56t-27.82-30.1q-17.75-10.57-40.19-10.57t-40.19,10.57q-17.75,10.57-27.82,30.1T376.2,420q0,26,10.09,45.56t27.82,30.1q17.73,10.58,40.19,10.57T494.49,495.61Z"/><path class="cls-1" d="M638.16,306.06h93.71q23.76,0,41.17,8t26.68,22.61Q809,351.3,809,370.16q0,25.07-14,41.49t-39.37,23.59l56,98.6H771.9L717.56,438.5H673.3v95.34H638.16Zm92.09,101.52q21.46,0,32.54-8.95t11.06-26.52q0-17.24-11.06-26.19T730.25,337h-57v70.61Z"/><path class="cls-1" d="M877.66,306.06H912.8v95.67l19.53-21.48,70.29-74.19h44.25l-80,84.28,85.91,143.5h-41L941.44,416.7,912.8,446.63v87.21H877.66Z"/></g></g></svg>