<svg xmlns="http://www.w3.org/2000/svg" viewBox="0 0 2677.28 976.31"><defs><style>.cls-1{fill:none;stroke:#fff;stroke-width:3px;}</style></defs><title>Asset 3</title><g id="Layer_2" data-name="Layer 2"><g id="Layer_1-2" data-name="Layer 1"><path class="cls-1" d="M22.73,151.61Q6.43,138,1.7,115.74L23.29,104.5q7.2,39.36,42.73,39.35,15.28,0,24.51-7.19t9.22-18q0-11.68-9.89-18.32T59.28,89.88q-23.62-4.5-37-15.85T8.9,43.55a36.59,36.59,0,0,1,6.86-21.92,44.79,44.79,0,0,1,19-14.85Q46.91,1.5,62.65,1.5q21.81,0,36.88,10.12t21.81,29.23L102,52.1Q97.05,37.92,86.94,30.4T62.42,22.86q-13,0-21.7,5.29t-8.66,15q0,10.57,10,16.87T73,70.54q25.64,5.4,38.35,16.64T124,117.32a43.17,43.17,0,0,1-7.19,24.06,49.67,49.67,0,0,1-20.36,17.43Q83.34,165.22,66,165.22,39,165.22,22.73,151.61Z"/><path class="cls-1" d="M151.48,4.65H254.7V26.24H175.77V69.87H248.4V91.45H175.77v49h79.61v21.59H151.48Z"/><path class="cls-1" d="M333.41,4.65h23.84l63.42,157.42H394.8l-17.09-43.63H313l-17.1,43.63H270Zm36.21,92.2-19.34-49.7-4.95-14.62-4.95,14.62L321,96.85Z"/><path class="cls-1" d="M450.46,151.61q-16.31-13.61-21-35.87L451,104.5q7.19,39.36,42.73,39.35,15.28,0,24.51-7.19t9.22-18q0-11.68-9.9-18.32T487,89.88Q463.4,85.38,450,74T436.64,43.55a36.65,36.65,0,0,1,6.85-21.92,44.82,44.82,0,0,1,19-14.85Q474.64,1.5,490.38,1.5q21.81,0,36.88,10.12t21.82,29.23L529.74,52.1q-4.95-14.18-15.07-21.7t-24.51-7.54q-13.05,0-21.7,5.29t-8.66,15q0,10.57,10,16.87t30.93,10.57q25.63,5.4,38.34,16.64t12.71,30.14a43.1,43.1,0,0,1-7.2,24.06,49.58,49.58,0,0,1-20.35,17.43q-13.15,6.41-30.47,6.41Q466.76,165.22,450.46,151.61Z"/><path class="cls-1" d="M607.21,154.76A75.27,75.27,0,0,1,579,125.64Q568.64,107,568.64,83.36T579,41.08A75.27,75.27,0,0,1,607.21,12Q625.09,1.5,647.35,1.5T687.5,12a75.41,75.41,0,0,1,28.22,29.12q10.34,18.68,10.34,42.28t-10.34,42.28a75.41,75.41,0,0,1-28.22,29.12q-17.88,10.45-40.15,10.46T607.21,154.76Zm67.92-19.12a50.64,50.64,0,0,0,19.23-20.8q7-13.49,7-31.48t-7-31.49a50.76,50.76,0,0,0-19.23-20.8,56.42,56.42,0,0,0-55.55,0,50.76,50.76,0,0,0-19.23,20.8q-7,13.5-7,31.49t7,31.48a50.64,50.64,0,0,0,19.23,20.8,56.42,56.42,0,0,0,55.55,0Z"/><path class="cls-1" d="M751.93,4.65h24.73L847.5,113.49q5.4,9.23,6.75,12.37V4.65h23.61V162.07h-25L782.06,52.77q-5.4-9.21-6.75-12.36V162.07H751.93Z"/><path class="cls-1" d="M913.17,4.65h103.22V26.24H937.46V69.87h72.63V91.45H937.46v49h79.61v21.59H913.17Z"/><path class="cls-1" d="M1044.5,4.65h45.2q24.3,0,43.07,9.11a67.88,67.88,0,0,1,29.35,26.87q10.56,17.76,10.57,42.73t-10.57,42.73A67.88,67.88,0,0,1,1132.77,153q-18.78,9.1-43.07,9.11h-45.2Zm45.88,135.15q26.53,0,42.17-14.39t15.62-42q0-27.66-15.62-42.06t-42.17-14.39h-21.59V139.8Z"/><path class="cls-1" d="M1290.86,158.13a51.47,51.47,0,0,1-21.93-20.8q-7.86-13.71-7.87-32.61V4.65h24.29V102.7q0,18.89,10.23,29.57T1322.91,143q17.08,0,27.32-10.68t10.23-29.57v-98h24.29V104.72q0,18.9-7.87,32.61a51.47,51.47,0,0,1-21.93,20.8q-14.06,7.1-32,7.09T1290.86,158.13Z"/><path class="cls-1" d="M1451.09,77.51,1405.44,4.65h26.31l32.61,54.2,33.73-54.2h25.19l-45.2,71.74,52.17,85.68h-26.09l-39.8-65.44-39.8,65.44h-26.32Z"/><path class="cls-1" d="M1611,4.65h45.2q24.3,0,43.07,9.11a67.88,67.88,0,0,1,29.35,26.87q10.56,17.76,10.57,42.73t-10.57,42.73A67.88,67.88,0,0,1,1699.25,153q-18.78,9.1-43.07,9.11H1611Zm45.88,135.15q26.54,0,42.17-14.39t15.62-42q0-27.66-15.62-42.06t-42.17-14.39h-21.59V139.8Z"/><path class="cls-1" d="M1765,4.65h103.22V26.24h-78.93V69.87H1862V91.45h-72.64v49h79.61v21.59H1765Z"/><path class="cls-1" d="M1906.6,151.61q-16.3-13.61-21-35.87l21.59-11.24q7.2,39.36,42.73,39.35,15.28,0,24.51-7.19t9.22-18q0-11.68-9.89-18.32t-30.59-10.46q-23.61-4.5-37-15.85t-13.38-30.48a36.59,36.59,0,0,1,6.86-21.92,44.72,44.72,0,0,1,19-14.85q12.15-5.28,27.89-5.28,21.81,0,36.88,10.12t21.81,29.23L1985.87,52.1q-4.95-14.18-15.07-21.7t-24.51-7.54q-13.05,0-21.7,5.29t-8.66,15q0,10.57,10,16.87t30.92,10.57q25.64,5.4,38.34,16.64t12.71,30.14a43.1,43.1,0,0,1-7.2,24.06,49.58,49.58,0,0,1-20.35,17.43q-13.15,6.41-30.47,6.41Q1922.91,165.22,1906.6,151.61Z"/><path class="cls-1" d="M2035.35,4.65h24.29V162.07h-24.29Z"/><path class="cls-1" d="M2122.83,154.65a74.34,74.34,0,0,1-27.55-29.35q-10-18.78-10-41.94t10.8-41.83a79.62,79.62,0,0,1,29-29.35,77.27,77.27,0,0,1,39.8-10.68q22.73,0,40.37,10.34A68.85,68.85,0,0,1,2232.13,40l-18.22,13.27q-8.1-15.06-20.58-22.71t-28.67-7.65a51.27,51.27,0,0,0-27.32,7.65,55.41,55.41,0,0,0-19.91,21.36Q2110,65.6,2110,83.36a68.16,68.16,0,0,0,6.75,30.7,51.81,51.81,0,0,0,18.78,21.25,49.38,49.38,0,0,0,27.09,7.64q20.25,0,32.16-11.92T2209,100.67h-52.85v-20h77.14v81.41h-16l-6.07-24.51a54.42,54.42,0,0,1-19.79,20.35q-12.37,7.31-29.46,7.31A74.31,74.31,0,0,1,2122.83,154.65Z"/><path class="cls-1" d="M2262.26,4.65H2287l70.84,108.84q5.38,9.23,6.74,12.37V4.65h23.62V162.07h-25l-70.84-109.3q-5.38-9.21-6.74-12.36V162.07h-23.39Z"/><path class="cls-1" d="M2423.5,4.65h103.23V26.24h-78.94V69.87h72.64V91.45h-72.64v49h79.61v21.59H2423.5Z"/><path class="cls-1" d="M2554.84,4.65h64.76q16.41,0,28.45,5.51a41.66,41.66,0,0,1,18.44,15.63A42.37,42.37,0,0,1,2672.9,49q0,17.33-9.67,28.67T2636,93.93l38.68,68.14h-27.44l-37.55-65.89h-30.59v65.89h-24.28Zm63.64,70.16q14.83,0,22.49-6.18t7.64-18.33q0-11.91-7.64-18.1T2618.48,26h-39.36v48.8Z"/><path class="cls-1" d="M8.9,274.51H77.49q26.31,0,41.72,13.38t15.4,37q0,23.61-15.4,36.88T77.49,375H33.19v56.89H8.9Zm67.92,78.94q16.64,0,25.07-7.54t8.43-21q0-13.72-8.43-21.26T76.82,296.1H33.19v57.35Z"/><path class="cls-1" d="M187.46,274.51H211.3l63.42,157.42H248.86L231.77,388.3H167l-17.09,43.63H124.05Zm36.21,92.2L204.33,317l-5-14.61L194.43,317l-19.34,49.7Z"/><path class="cls-1" d="M304.52,421.47q-16.31-13.61-21-35.87l21.59-11.24q7.2,39.36,42.73,39.36,15.29,0,24.51-7.2t9.22-18q0-11.7-9.89-18.33t-30.59-10.46q-23.61-4.49-37-15.85t-13.38-30.47a36.6,36.6,0,0,1,6.86-21.93,44.63,44.63,0,0,1,19-14.84q12.13-5.28,27.88-5.29,21.81,0,36.88,10.12t21.82,29.24L383.79,322q-4.95-14.16-15.07-21.7t-24.51-7.53q-13.05,0-21.7,5.28t-8.66,15q0,10.57,10,16.86t30.92,10.57q25.64,5.4,38.34,16.64t12.71,30.14a43.08,43.08,0,0,1-7.2,24.06,49.51,49.51,0,0,1-20.35,17.43q-13.15,6.4-30.47,6.41Q320.83,435.08,304.52,421.47Z"/><path class="cls-1" d="M447.32,421.47q-16.31-13.61-21-35.87l21.59-11.24q7.2,39.36,42.73,39.36,15.3,0,24.51-7.2t9.23-18q0-11.7-9.9-18.33t-30.58-10.46q-23.62-4.49-37-15.85t-13.38-30.47a36.67,36.67,0,0,1,6.86-21.93,44.69,44.69,0,0,1,19-14.84q12.15-5.28,27.89-5.29,21.81,0,36.88,10.12t21.81,29.24L526.59,322q-5-14.16-15.06-21.7T487,292.73q-13,0-21.7,5.28t-8.66,15q0,10.57,10,16.86t30.92,10.57q25.63,5.4,38.35,16.64t12.7,30.14a43.15,43.15,0,0,1-7.19,24.06,49.54,49.54,0,0,1-20.36,17.43q-13.16,6.4-30.47,6.41Q463.63,435.08,447.32,421.47Z"/><path class="cls-1" d="M576.07,274.51h24.29V431.93H576.07Z"/><path class="cls-1" d="M664.56,424.62a75.34,75.34,0,0,1-28.22-29.12Q626,376.84,626,353.22t10.34-42.28a75.41,75.41,0,0,1,28.22-29.12q17.88-10.45,40.15-10.46t40.14,10.46a75.27,75.27,0,0,1,28.22,29.12q10.35,18.68,10.35,42.28T773.07,395.5a75.2,75.2,0,0,1-28.22,29.12Q727,435.07,704.71,435.08T664.56,424.62Zm67.92-19.11a50.7,50.7,0,0,0,19.23-20.8q7-13.5,7-31.49t-7-31.48a50.64,50.64,0,0,0-19.23-20.8,56.42,56.42,0,0,0-55.55,0,50.55,50.55,0,0,0-19.22,20.8q-7,13.49-7,31.48t7,31.49a50.61,50.61,0,0,0,19.22,20.8,56.42,56.42,0,0,0,55.55,0Z"/><path class="cls-1" d="M809.28,274.51H834l70.84,108.85q5.4,9.21,6.74,12.36V274.51h23.62V431.93h-25L839.42,322.64q-5.4-9.22-6.75-12.37V431.93H809.28Z"/><path class="cls-1" d="M1013.93,274.51h23.83l63.42,157.42h-25.86l-17.09-43.63H993.46l-17.09,43.63H950.51Zm36.2,92.2L1030.79,317l-5-14.61L1020.9,317l-19.34,49.7Z"/><path class="cls-1" d="M1137.84,296.77h-48.35V274.51h121v22.26h-48.35V431.93h-24.29Z"/><path class="cls-1" d="M1231.84,274.51h103.22V296.1h-78.93v43.63h72.64v21.59h-72.64v49h79.61v21.59h-103.9Z"/><path class="cls-1" d="M1429.06,274.51h103.23V296.1h-78.94v43.63H1526v21.59h-72.64v49H1533v21.59h-103.9Z"/><path class="cls-1" d="M1560.4,274.51h45.2q24.29,0,43.06,9.11A67.88,67.88,0,0,1,1678,310.49q10.58,17.77,10.57,42.73T1678,396a67.88,67.88,0,0,1-29.35,26.87q-18.78,9.12-43.06,9.11h-45.2Zm45.87,135.16q26.54,0,42.17-14.4t15.63-42q0-27.66-15.63-42.05t-42.17-14.4h-21.59v112.9Z"/><path class="cls-1" d="M1742.67,428a51.5,51.5,0,0,1-21.93-20.81q-7.87-13.71-7.87-32.6V274.51h24.29v98.05q0,18.9,10.23,29.57t27.32,10.69q17.08,0,27.33-10.69t10.23-29.57V274.51h24.29V374.59q0,18.89-7.87,32.6A51.61,51.61,0,0,1,1806.76,428q-14.05,7.08-32,7.08T1742.67,428Z"/><path class="cls-1" d="M1899.07,424.62A73.49,73.49,0,0,1,1871,395.5q-10.11-18.66-10.12-42.28,0-23.39,10.69-42.05a78.29,78.29,0,0,1,68.92-39.81q23.38,0,41.27,11.13a66.62,66.62,0,0,1,26.2,29.58L1988.58,326q-8.32-16.63-20.24-24.51t-28.56-7.87a51.3,51.3,0,0,0-27.21,7.53,54.1,54.1,0,0,0-19.68,21.14q-7.31,13.6-7.31,30.92a65.5,65.5,0,0,0,7.08,30.7,53.42,53.42,0,0,0,19.46,21.25,51.5,51.5,0,0,0,27.66,7.65q32.84,0,49.92-32.61l18.89,13.27q-13.71,21.58-29.34,31.59t-39.92,10A78.69,78.69,0,0,1,1899.07,424.62Z"/><path class="cls-1" d="M2079.66,274.51h23.84l63.41,157.42h-25.86L2124,388.3h-64.77l-17.09,43.63h-25.86Zm36.2,92.2L2096.52,317l-4.94-14.61L2086.63,317l-19.34,49.7Z"/><path class="cls-1" d="M2203.57,296.77h-48.35V274.51h121v22.26h-48.35V431.93h-24.29Z"/><path class="cls-1" d="M2319.05,424.62a75.2,75.2,0,0,1-28.22-29.12q-10.35-18.66-10.35-42.28t10.35-42.28a75.27,75.27,0,0,1,28.22-29.12q17.88-10.45,40.14-10.46t40.15,10.46a75.41,75.41,0,0,1,28.22,29.12q10.33,18.68,10.34,42.28t-10.34,42.28a75.34,75.34,0,0,1-28.22,29.12q-17.88,10.45-40.15,10.46T2319.05,424.62ZM2387,405.51a50.7,50.7,0,0,0,19.23-20.8q7-13.5,7-31.49t-7-31.48a50.64,50.64,0,0,0-19.23-20.8,56.42,56.42,0,0,0-55.55,0,50.64,50.64,0,0,0-19.23,20.8q-7,13.49-7,31.48t7,31.49a50.7,50.7,0,0,0,19.23,20.8,56.42,56.42,0,0,0,55.55,0Z"/><path class="cls-1" d="M2463.77,274.51h64.76q16.42,0,28.45,5.51a41.73,41.73,0,0,1,18.44,15.63,42.4,42.4,0,0,1,6.41,23.16q0,17.32-9.67,28.68T2545,363.79l38.68,68.14h-27.44L2518.64,366h-30.59v65.89h-24.28Zm63.64,70.17q14.84,0,22.49-6.19t7.64-18.33q0-11.91-7.64-18.1t-22.49-6.18h-39.36v48.8Z"/><path class="cls-1" d="M8.9,544.37H112.12V566H33.19v43.63h72.64v21.59H33.19v49H112.8v21.58H8.9Z"/><path class="cls-1" d="M140.23,544.37h25.86l53.3,132.46,53.53-132.46h25.86V701.79H275.17V593a166.07,166.07,0,0,1-7.65,23.39l-36,85.45H207.47l-36-85.45A217.42,217.42,0,0,1,163.62,593V701.79H140.23Z"/><path class="cls-1" d="M334.31,544.37H402.9q26.31,0,41.71,13.39t15.41,37q0,23.61-15.41,36.88T402.9,644.9H358.6v56.89H334.31Zm67.91,78.94q16.65,0,25.08-7.53t8.43-21q0-13.71-8.43-21.25T402.22,566H358.6v57.35Z"/><path class="cls-1" d="M515.68,694.49a75.29,75.29,0,0,1-28.22-29.13q-10.35-18.66-10.35-42.28t10.35-42.27a75.23,75.23,0,0,1,28.22-29.13q17.88-10.45,40.14-10.45T596,551.68a75.32,75.32,0,0,1,28.23,29.13q10.34,18.66,10.34,42.27t-10.34,42.28A75.39,75.39,0,0,1,596,694.49q-17.87,10.46-40.14,10.45T515.68,694.49Zm67.92-19.12a50.61,50.61,0,0,0,19.22-20.8q7-13.5,7-31.49t-7-31.48a50.61,50.61,0,0,0-19.22-20.8,56.42,56.42,0,0,0-55.55,0,50.7,50.7,0,0,0-19.23,20.8q-7,13.5-7,31.48t7,31.49a50.7,50.7,0,0,0,19.23,20.8,56.42,56.42,0,0,0,55.55,0Z"/><path class="cls-1" d="M641.73,544.37h25.19L695,652.77q2.91,11.7,4,17.09l3.83-17.32L731,544.37h25.64l28.11,108.17,3.82,17.32q1.13-5.4,4-17.09l28.11-108.4h25.18L802.07,701.79H776L743.83,578.11,711.67,701.79H685.58Z"/><path class="cls-1" d="M864.82,544.37H968V566H889.1v43.63h72.64v21.59H889.1v49h79.61v21.58H864.82Z"/><path class="cls-1" d="M996.15,544.37h64.77q16.41,0,28.44,5.51a41.79,41.79,0,0,1,18.44,15.63,42.32,42.32,0,0,1,6.41,23.17q0,17.31-9.67,28.67t-27.21,16.3L1116,701.79h-27.43L1051,635.9h-30.58v65.89H996.15Zm63.64,70.17q14.85,0,22.49-6.19t7.65-18.32q0-11.92-7.65-18.11t-22.49-6.18h-39.35v48.8Z"/><path class="cls-1" d="M1139.18,544.37h24.29V701.79h-24.29Z"/><path class="cls-1" d="M1198.77,544.37h24.74l70.84,108.85q5.4,9.22,6.74,12.37V544.37h23.62V701.79h-25L1228.91,592.5q-5.4-9.22-6.75-12.37V701.79h-23.39Z"/><path class="cls-1" d="M1387.9,694.37A74.24,74.24,0,0,1,1360.35,665q-10-18.78-10-41.95t10.79-41.82a79.55,79.55,0,0,1,29-29.35A77.28,77.28,0,0,1,1430,541.23q22.71,0,40.36,10.34a68.85,68.85,0,0,1,26.88,28.11L1479,593q-8.1-15.06-20.58-22.71t-28.67-7.65a51.27,51.27,0,0,0-27.32,7.65,55.34,55.34,0,0,0-19.91,21.36q-7.41,13.73-7.42,31.48a68.13,68.13,0,0,0,6.75,30.7A51.81,51.81,0,0,0,1400.61,675a49.42,49.42,0,0,0,27.1,7.65q20.24,0,32.16-11.92T1474,640.4h-52.84v-20h77.13v81.4h-16l-6.07-24.51a54.27,54.27,0,0,1-19.79,20.35q-12.36,7.3-29.46,7.31A74.34,74.34,0,0,1,1387.9,694.37Z"/><path class="cls-1" d="M1606.15,691.34q-16.31-13.61-21-35.87l21.59-11.25q7.2,39.36,42.73,39.36,15.29,0,24.51-7.2t9.22-18q0-11.68-9.89-18.33t-30.59-10.45q-23.61-4.5-37-15.86t-13.38-30.47a36.64,36.64,0,0,1,6.86-21.93,44.7,44.7,0,0,1,19-14.84q12.15-5.28,27.89-5.28,21.81,0,36.88,10.12t21.81,29.23l-19.34,11.24q-5-14.16-15.07-21.7t-24.51-7.53q-13,0-21.7,5.28t-8.66,15q0,10.57,10,16.87t30.92,10.57q25.63,5.38,38.34,16.64T1707.46,657a43.08,43.08,0,0,1-7.2,24.06,49.51,49.51,0,0,1-20.35,17.43q-13.15,6.42-30.47,6.41Q1622.46,704.94,1606.15,691.34Z"/><path class="cls-1" d="M1734.9,544.37h68.59q26.31,0,41.71,13.39t15.41,37q0,23.61-15.41,36.88t-41.71,13.27h-44.31v56.89H1734.9Zm67.91,78.94q16.64,0,25.08-7.53t8.43-21q0-13.71-8.43-21.25T1802.81,566h-43.63v57.35Z"/><path class="cls-1" d="M1885.8,544.37H1989V566h-78.94v43.63h72.64v21.59h-72.64v49h79.61v21.58H1885.8Z"/><path class="cls-1" d="M2067.73,544.37h23.84L2155,701.79h-25.86L2112,658.17h-64.77l-17.09,43.62h-25.86Zm36.2,92.21-19.34-49.7-4.94-14.62-5,14.62-19.34,49.7Z"/><path class="cls-1" d="M2170.5,544.37h24.29v66.12l13.49-14.84,48.57-51.28h30.59l-55.32,58.25,59.37,99.17h-28.34l-48.57-80.95-19.79,20.68v60.27H2170.5Z"/><path class="cls-1" d="M2308.8,544.37H2412V566h-78.93v43.63h72.64v21.59h-72.64v49h79.61v21.58H2308.8Z"/><path class="cls-1" d="M2440.13,544.37h64.77q16.41,0,28.45,5.51a41.79,41.79,0,0,1,18.44,15.63,42.41,42.41,0,0,1,6.41,23.17q0,17.31-9.67,28.67t-27.21,16.3L2560,701.79h-27.44L2495,635.9h-30.59v65.89h-24.29Zm63.65,70.17q14.83,0,22.49-6.19t7.64-18.32q0-11.92-7.64-18.11t-22.49-6.18h-39.36v48.8Z"/><path class="cls-1" d="M8.9,814.24H54.1q24.29,0,43.07,9.11a67.94,67.94,0,0,1,29.35,26.87Q137.08,868,137.09,893t-10.57,42.73a67.94,67.94,0,0,1-29.35,26.87q-18.78,9.11-43.07,9.11H8.9ZM54.78,949.39q26.53,0,42.16-14.39t15.63-42q0-27.66-15.63-42.06T54.78,836.5H33.19V949.39Z"/><path class="cls-1" d="M203.2,814.24H227l63.42,157.42H264.6L247.51,928H182.74l-17.09,43.63H139.79Zm36.21,92.2-19.34-49.7-4.95-14.62-5,14.62-19.34,49.7Z"/><path class="cls-1" d="M306,814.24h45.2q24.29,0,43.06,9.11a67.88,67.88,0,0,1,29.35,26.87Q434.17,868,434.16,893t-10.57,42.73a67.88,67.88,0,0,1-29.35,26.87q-18.78,9.11-43.06,9.11H306Zm45.87,135.15q26.53,0,42.17-14.39t15.63-42q0-27.66-15.63-42.06T351.85,836.5H330.26V949.39Z"/><path class="cls-1" d="M543.45,968.62a45.46,45.46,0,0,1-17.65-17.09,48,48,0,0,1-6.41-24.85q0-15.51,8-26.87t22.15-20.13q-10.57-16.2-10.57-31.26A37.26,37.26,0,0,1,544,829.08a35.16,35.16,0,0,1,13.83-13.27,40.11,40.11,0,0,1,19.34-4.72q16.41,0,26.65,8.66T614.06,843a33.3,33.3,0,0,1-8.43,22.38q-8.43,9.78-26.87,19.23l33,43q6.75-13,10.57-33.06l18.22,10.35q-5.85,23.83-16,39.58l20.92,27.21h-27L610,960.41q-16.87,14.4-40.93,14.4A52.33,52.33,0,0,1,543.45,968.62Zm54.87-24L560.77,895q-9.22,6.53-13.72,13.83a32.19,32.19,0,0,0-4.5,17.21q0,12.81,8.43,20.69t20.81,7.87A39.38,39.38,0,0,0,598.32,944.67Zm-10-86.69a18.32,18.32,0,0,0,5.74-13.38,14,14,0,0,0-4.84-11,17.49,17.49,0,0,0-12-4.28,17.68,17.68,0,0,0-12.48,5q-5.28,4.95-5.28,13.72,0,10.57,8.54,22.49Q582.59,863.71,588.31,858Z"/><path class="cls-1" d="M733.47,814.24h24.74l70.84,108.84a139.78,139.78,0,0,1,6.74,12.37V814.24h23.62V971.66h-25l-70.84-109.3A140.68,140.68,0,0,1,756.86,850V971.66H733.47Z"/><path class="cls-1" d="M894.72,814.24H919V971.66H894.72Z"/><path class="cls-1" d="M982.87,964.35a73.56,73.56,0,0,1-28.11-29.12Q944.64,916.56,944.64,893q0-23.38,10.68-42.06a78.33,78.33,0,0,1,68.93-39.8q23.38,0,41.27,11.13a66.55,66.55,0,0,1,26.2,29.57l-19.34,14q-8.33-16.65-20.24-24.52t-28.56-7.87a51.22,51.22,0,0,0-27.21,7.54A54.1,54.1,0,0,0,976.69,862q-7.32,13.61-7.31,30.92a65.48,65.48,0,0,0,7.08,30.69,53.38,53.38,0,0,0,19.46,21.26,51.57,51.57,0,0,0,27.66,7.64q32.82,0,49.92-32.61l18.89,13.27q-13.71,21.59-29.35,31.6t-39.91,10A78.66,78.66,0,0,1,982.87,964.35Z"/><path class="cls-1" d="M1116.45,814.24h103.23v21.59h-78.94v43.62h72.64V901h-72.64v49h79.61v21.59h-103.9Z"/><path class="cls-1" d="M1344.48,964.24a74.34,74.34,0,0,1-27.55-29.35q-10-18.78-10-41.94t10.79-41.83a79.62,79.62,0,0,1,29-29.35,77.34,77.34,0,0,1,39.81-10.68q22.71,0,40.36,10.34a68.85,68.85,0,0,1,26.88,28.11l-18.22,13.27q-8.08-15.06-20.57-22.71t-28.68-7.65A51.3,51.3,0,0,0,1359,840.1a55.32,55.32,0,0,0-19.9,21.36q-7.42,13.72-7.43,31.49a68.12,68.12,0,0,0,6.75,30.69,51.84,51.84,0,0,0,18.78,21.26,49.5,49.5,0,0,0,27.1,7.64q20.24,0,32.16-11.92t14.17-30.36h-52.85v-20h77.13v81.41h-16l-6.08-24.52a54.23,54.23,0,0,1-19.79,20.36q-12.36,7.31-29.46,7.31A74.34,74.34,0,0,1,1344.48,964.24Z"/><path class="cls-1" d="M1514.16,967.72a51.47,51.47,0,0,1-21.93-20.8q-7.87-13.71-7.87-32.61V814.24h24.29v98q0,18.88,10.23,29.57t27.32,10.68q17.1,0,27.33-10.68t10.23-29.57v-98h24.29V914.31q0,18.9-7.87,32.61a51.47,51.47,0,0,1-21.93,20.8q-14.05,7.08-32,7.09T1514.16,967.72Z"/><path class="cls-1" d="M1676,908.69l-51.72-94.45h26.53l32.39,61.17q2.91,5.85,4.94,11,2-5.17,5-11l32.38-61.17H1752l-51.72,94.45v63H1676Z"/></g></g></svg>