<svg width="217" height="105" viewBox="0 0 217 105" fill="none" xmlns="http://www.w3.org/2000/svg">
<path d="M85.7122 1.00049V69.3408L26.5352 103.511V35.1707L85.7122 1.00049Z" stroke="black" stroke-width="1.5" stroke-miterlimit="1" stroke-linecap="round" stroke-linejoin="round" stroke-dasharray="10 10"/>
<path d="M115.301 1V69.3403L56.124 103.511V35.1702L115.301 1Z" stroke="black" stroke-width="1.5" stroke-miterlimit="1" stroke-linecap="square" stroke-linejoin="round"/>
<path d="M144.89 1V69.3403L85.7129 103.511V35.1702L144.89 1Z" stroke="black" stroke-width="1.5" stroke-miterlimit="1" stroke-linecap="square" stroke-linejoin="round"/>
<path d="M85.9028 103.241L144.542 1.47461" stroke="black" stroke-width="1.5"/>
<path d="M86.4625 35.7253L144.12 68.3391" stroke="black" stroke-width="1.5"/>
<path d="M188.695 65.5382L188.696 65.5377C191.874 63.6994 194.707 60.5846 196.741 57.0616C198.775 53.5388 200.051 49.5374 200.041 45.8838C200.031 42.2338 198.726 39.474 196.414 38.1555C194.103 36.838 191.051 37.1107 187.876 38.9417L187.875 38.9422C184.697 40.7805 181.864 43.8953 179.83 47.4183C177.796 50.9411 176.52 54.9425 176.53 58.5962C176.541 62.2461 177.845 65.0059 180.158 66.3244C182.468 67.6419 185.521 67.3692 188.695 65.5382ZM188.596 30.1241L188.596 30.124C197.458 25.0077 203.847 25.7721 208.217 28.0987C212.42 30.337 214.891 34.0924 215.891 35.9086C214.916 38.798 212.361 45.7062 207.943 53.1826C203.356 60.9457 196.797 69.2594 187.975 74.3559C179.113 79.4722 172.725 78.7078 168.356 76.3812C164.153 74.1425 161.685 70.3863 160.69 68.5716C161.659 65.6836 164.212 58.7722 168.629 51.2935C173.215 43.5291 179.774 35.2155 188.596 30.1241Z" stroke="black" stroke-width="1.5"/>
<path d="M188.291 52.2396L1.6068 52.2402" stroke="black" stroke-width="1.5" stroke-linecap="round"/>
</svg>
